<svg width="9447" height="5513" viewBox="0 0 9447 5513" fill="none" xmlns="http://www.w3.org/2000/svg">
<path fill-rule="evenodd" clip-rule="evenodd" d="M79.0774 452.121L78.9534 452.365L79.0522 452.354C79.0027 452.894 79.0159 453.449 79.0977 454.009L80.9661 466.799C81.5249 470.625 85.0791 473.273 88.9045 472.714L1819.1 219.952C1817.88 221.44 1817.27 223.422 1817.59 225.474L1865.87 534.376C1866.47 538.196 1870.05 540.808 1873.87 540.211L2852.29 387.293C2856.11 386.696 2858.72 383.116 2858.13 379.296L2811.83 83.0417L6712.62 567.409L2.573 4441.46C0.181641 4442.84 -0.637695 4445.9 0.74292 4448.29L9.20581 4462.95L9.25391 4463.03C8.93286 4465.4 10.364 4467.73 12.7305 4468.47L3380.05 5511.8C3380.7 5512.01 3381.37 5512.07 3382.01 5512.01C3382.84 5512.63 3383.88 5513 3385 5513L10769 5513C10771.8 5513 10774 5510.76 10774 5508V5491C10774 5488.24 10771.8 5486 10769 5486L3387.74 5486L42.4944 4449.5L6750.18 576.818C6752.57 575.437 6753.39 572.379 6752.01 569.988L6743.55 555.329C6742.17 552.938 6739.11 552.119 6736.72 553.499L6727.99 558.539L6729.37 547.395C6729.71 544.654 6727.77 542.157 6725.03 541.817L2791.21 53.3494C2789.71 51.9674 2787.63 51.2488 2785.45 51.5665L2781.5 52.1436L2777.28 51.6194C2775.51 51.3998 2773.84 52.1323 2772.79 53.416L622.242 367.588L308.751 0.304688L81.2209 447.904C80.0564 449.005 79.282 450.491 79.0774 452.121Z" fill="#FF5C00"/>
</svg>
