<svg width="10777" height="5513" viewBox="0 0 10777 5513" fill="none" xmlns="http://www.w3.org/2000/svg">
<path fill-rule="evenodd" clip-rule="evenodd" d="M82.0168 451.817L81.893 452.061L81.9917 452.049C81.9422 452.589 81.9553 453.144 82.0372 453.705L83.9056 466.495C84.4645 470.32 88.0186 472.968 91.844 472.409L1822.03 219.649C1820.81 221.137 1820.2 223.118 1820.52 225.169L1868.8 534.072C1869.4 537.891 1872.98 540.504 1876.8 539.907L2855.22 386.989C2859.04 386.392 2861.65 382.811 2861.06 378.992L2814.76 82.7381L6715.55 567.105L2.63755 4442.81C0.246089 4444.19 -0.573285 4447.25 0.807427 4449.64L9.27032 4464.3C9.47766 4464.66 9.72282 4464.98 9.99787 4465.27C10.6124 4466.17 11.5259 4466.88 12.6507 4467.23L3382.99 5511.5C3383.64 5511.7 3384.3 5511.76 3384.94 5511.7C3385.77 5512.33 3386.81 5512.69 3387.93 5512.69L10771.9 5512.69C10774.7 5512.69 10776.9 5510.46 10776.9 5507.69V5490.69C10776.9 5487.93 10774.7 5485.69 10771.9 5485.69L3390.68 5485.69L45.4289 4449.19L6759.82 572.638C6761.51 571.664 6762.41 569.853 6762.31 568.031L6762.32 567.97L6762.34 567.876L6764.42 551.079C6764.76 548.339 6762.82 545.842 6760.08 545.501L2794.15 53.0473C2792.65 51.6636 2790.57 50.9439 2788.39 51.2618L2784.43 51.8401L2780.21 51.3158C2778.44 51.0961 2776.77 51.8288 2775.72 53.1127L625.182 367.283L311.691 0L84.1608 447.599C82.9961 448.7 82.2215 450.186 82.0168 451.817Z" fill="#FF5C00"/>
</svg>
