<svg width="60" height="59" viewBox="0 0 60 59" fill="none" xmlns="http://www.w3.org/2000/svg">
<path d="M2 20.3337V39.0008H11.3336L30.0007 55.3345V4L11.3336 20.3337H2Z" stroke="white" stroke-width="3" stroke-miterlimit="10"/>
<path d="M34.959 24.7031C35.6116 25.3535 36.1294 26.1262 36.4827 26.9771C36.836 27.828 37.0179 28.7403 37.0179 29.6616C37.0179 30.5829 36.836 31.4952 36.4827 32.346C36.1294 33.1969 35.6116 33.9697 34.959 34.62" stroke="white" stroke-width="3" stroke-miterlimit="10"/>
<path d="M41.5508 18.1172C43.0677 19.6339 44.271 21.4346 45.0919 23.4164C45.9129 25.3982 46.3354 27.5223 46.3354 29.6675C46.3354 31.8126 45.9129 33.9367 45.0919 35.9185C44.271 37.9003 43.0677 39.701 41.5508 41.2177" stroke="white" stroke-width="3" stroke-miterlimit="10"/>
<path d="M49.7998 9.86719C55.0505 15.1183 58.0004 22.2401 58.0004 29.666C58.0004 37.0919 55.0505 44.2137 49.7998 49.4648" stroke="white" stroke-width="3" stroke-miterlimit="10"/>
</svg>
