<svg xmlns="http://www.w3.org/2000/svg" viewBox="0 0 418.47 418.47"><defs><style>.cls-1{fill:none;stroke:#000;stroke-miterlimit:10;stroke-width:10px;}</style></defs><g id="Layer_2" data-name="Layer 2"><g id="Layer_1-2" data-name="Layer 1"><polygon class="cls-1" points="293.83 5 124.64 5 5 124.64 5 293.83 124.64 413.46 293.83 413.46 413.46 293.83 413.46 124.64 293.83 5"/><polygon class="cls-1" points="286.35 23.04 132.34 23.04 23.43 131.94 23.43 285.96 132.34 394.86 286.35 394.86 395.26 285.96 395.26 131.94 286.35 23.04"/><path d="M261.65,291c-14.52,21.12-34.6,36.33-61.72,36.33a61.14,61.14,0,0,1-61.14-61.14V147.59c0-7.19,5.88-13.47,13.07-13.48A13.11,13.11,0,0,1,165,147.21v62.43a1.55,1.55,0,0,0,2.38,1.31l0,0a1.56,1.56,0,0,0,.73-1.31V121.35a13.34,13.34,0,0,1,12.14-13.42A13.12,13.12,0,0,1,194.34,121v82.19a1.58,1.58,0,0,0,1.48,1.62,1.52,1.52,0,0,0,1.55-1.53v-98.7a13.33,13.33,0,0,1,12.14-13.41,13.1,13.1,0,0,1,14.06,13.06v97.16a1.43,1.43,0,0,0,.87,1.32l0,0a1.45,1.45,0,0,0,2-1.32V117.9c0-7.19,5.88-13.47,13.08-13.49a13.11,13.11,0,0,1,13.12,13.1v90.75c0,7.94,6,14.84,14,15.34q.5,0,1,0a15.83,15.83,0,0,0,9.82-3.39l1.76-1.62,25.45-23.27a13.1,13.1,0,0,1,18.51.83h0a13.1,13.1,0,0,1-.83,18.5l-22.56,27.65Z"/></g></g></svg>