<svg xmlns="http://www.w3.org/2000/svg" viewBox="0 0 425.56 394.76"><defs><style>.cls-1{fill:none;stroke:#000;stroke-miterlimit:10;stroke-width:10px;}</style></defs><g id="Layer_2" data-name="Layer 2"><g id="Layer_1-2" data-name="Layer 1"><path class="cls-1" d="M25.62,103.58S38.31,64.66,63.69,45.2s42-34.16,70.89-37.66c44-5.35,57.72,1.28,104.25-2.1S320.41,18.77,351.36,41c8.28,5.94,24.92,29.53,32.15,41.46C393,98,401.8,110.22,408.05,125.58c6.57,16.13,17.74,46.21,9.73,76.27-11.71,44-29.19,61.65-37.65,77.72S360.62,319,335.55,337.32c-10.25,7.48-69,36.91-79.2,39.77C239,382,204.62,393.23,177.91,388.72c-22.83-3.86-49.78-15.23-76.85-38.08s-79.33-45.78-90.67-92.37C2.13,224.35.71,171.79,25.62,103.58Z"/><path d="M131.67,70.24a6.51,6.51,0,0,1,5.47-2.44c6,.31,18.15,1.27,23.06,3.92,6.61,3.56,15,3.3,12,16s-17.54,25.66-20.84,32c-2.65,5.09-11.18,9.53-17.34,12.14a8.13,8.13,0,0,1-7.91-.9c-9.39-6.72-18.27-18.25-18.71-21.15C106.87,106.73,120.53,84.32,131.67,70.24Z"/><path d="M62.3,178.18c12.51-2.63,24.12,1.23,29,9s14.31,20.44,11.85,33.93S97.46,237.46,90.1,242s-13.49-5.32-22.48-5.72-23.31-4.5-23.31-16.36S46.77,181.45,62.3,178.18Z"/><path d="M221.52,182.34A14.6,14.6,0,0,0,214,195.07v16.58c0,5.92,0,9.41,7.27,13.18s11.3,5.92,24.75-1.08a86.16,86.16,0,0,0,18.18-13.05,7.85,7.85,0,0,0,1.53-9.61,18.58,18.58,0,0,1-2.49-8.33c-.27-7.48-4.57-21.74-13.18-20.93C243.38,172.46,231.25,176.85,221.52,182.34Z"/><path d="M295.42,191.45c3.33-.8,16.78,1.46,18.25,3.25s1.79,11.57,2.77,19.88S319.21,232.66,313,234s-13.68,9.12-21,1.14-16.78-13.53-12.55-21.34S288.58,193.08,295.42,191.45Z"/><path d="M240.69,89.9A16.43,16.43,0,0,0,248.17,101c6.65,4.16,16.65,10.34,19.56,11.8,4.49,2.24,7.85,3,22.42-3.37s21.67-7.47,19.8-20.92.37-28.76-14.95-31.38-26.14-5.6-40,2.62-17.55,11.94-15.31,24.65Z"/><path d="M357.11,158.66a5.65,5.65,0,0,1,7.53-3c5.48,2.06,14.84,6.16,12.56,9.36S367.38,179,361,177.15s-11.64-3.25-7.76-10.87Z"/><path d="M100.32,303.68a11.38,11.38,0,0,1,.91-5.9c2.38-5.43,9.07-19.28,15.2-19.16,13.42.25,22-4.13,23.52,22.11,1.08,18.76-5.55,14.56-17,18.79-6.24,2.32-9.91.06-15.76-2.77C103.19,314.81,100.88,308.36,100.32,303.68Z"/><path d="M263,287.48s11-2.29,15.57,6,8.49,23.84,6.7,30.54,2.12,13.23-18.29,13.39-18.78,3.59-30.38-3.76-10.94-9.8-7.51-23.84,6.59-20.74,20.25-21.56Z"/></g></g></svg>