<svg width="138" height="58" viewBox="0 0 138 58" fill="none" xmlns="http://www.w3.org/2000/svg">
<path d="M42.9185 44.3926C43.0416 44.1418 43.0541 43.851 42.9532 43.5906C42.8523 43.3302 42.647 43.1238 42.3871 43.0215L33.6241 39.5715C33.173 39.3939 32.6594 39.5655 32.4056 39.9787C30.1813 43.6012 27.0623 45.022 23.6668 45.022C18.2376 45.022 14.2478 41.0065 14.2478 35.327C14.2478 29.7032 18.1815 25.632 23.5978 25.632C26.9395 25.632 29.9413 27.2812 32.0553 30.8045C32.3066 31.2233 32.8236 31.3993 33.2782 31.2208L42.5932 27.5638C42.8602 27.459 43.0692 27.2447 43.1674 26.9753C43.2655 26.7059 43.2433 26.4073 43.1063 26.1553C39.0646 18.7215 31.9626 14.593 23.5978 14.593C11.7745 14.593 1.9668 23.8288 1.9668 35.327C1.9668 46.825 11.8433 56.13 23.6668 56.13C28.1589 56.13 32.0225 55.1662 35.2546 53.1885C38.4884 51.2097 41.0218 48.2577 42.9185 44.3926ZM51.1908 5.45V14.593H47.5677C47.0155 14.593 46.5677 15.0407 46.5677 15.593V24.632C46.5677 25.1843 47.0155 25.632 47.5677 25.632H51.1908V45.677C51.1908 49.9017 52.5033 52.6562 55.1185 54.2578C57.6064 55.7814 61.0922 56.13 65.0938 56.13C66.5893 56.13 68.5595 55.9887 69.8272 55.8479C70.3336 55.7916 70.7168 55.3636 70.7168 54.854V46.16C70.7168 45.8756 70.5956 45.6046 70.3837 45.4149C70.1717 45.2252 69.889 45.1347 69.6063 45.1661C69.0156 45.2318 68.225 45.298 67.0947 45.298C66.067 45.298 65.3742 45.0989 64.9009 44.8331C64.4355 44.5718 64.1234 44.2131 63.9042 43.7875C63.4362 42.8787 63.4028 41.7065 63.4028 40.64V25.632H69.9928C70.545 25.632 70.9928 25.1843 70.9928 24.632V15.593C70.9928 15.0407 70.545 14.593 69.9928 14.593H63.4028V5.45C63.4028 4.89772 62.955 4.45 62.4028 4.45H52.1908C51.6385 4.45 51.1908 4.89772 51.1908 5.45ZM100.97 26.5945C101.249 26.6178 101.525 26.5232 101.731 26.3339C101.936 26.1445 102.054 25.8777 102.054 25.598V15.524C102.054 14.9817 101.621 14.5382 101.079 14.5243C98.6572 14.4622 93.2018 14.9773 89.0815 18.6893V16.214C89.0815 15.6617 88.6338 15.214 88.0815 15.214H77.8005C77.2482 15.214 76.8005 15.6617 76.8005 16.214V54.164C76.8005 54.7163 77.2482 55.164 77.8005 55.164H88.0815C88.6338 55.164 89.0815 54.7163 89.0815 54.164V37.397C89.0815 34.6726 89.6997 32.669 90.611 31.1868C91.5231 29.7031 92.7647 28.6837 94.0998 27.9847C96.8046 26.5686 99.837 26.5001 100.97 26.5945ZM106.252 54.164C106.252 54.7163 106.699 55.164 107.252 55.164H117.602C118.154 55.164 118.602 54.7163 118.602 54.164V2C118.602 1.44772 118.154 1 117.602 1H107.252C106.699 1 106.252 1.44772 106.252 2V54.164ZM136.745 49.196C136.745 45.653 133.72 42.676 130.018 42.676C126.377 42.676 123.36 45.6608 123.36 49.196C123.36 52.8082 126.385 55.716 130.018 55.716C133.712 55.716 136.745 52.816 136.745 49.196Z" fill="white" stroke="black" stroke-width="2" stroke-linejoin="round"/>
</svg>
