<svg xmlns="http://www.w3.org/2000/svg" viewBox="0 0 391.03 139.98"><g id="Layer_2" data-name="Layer 2"><g id="Layer_1-2" data-name="Layer 1"><path d="M293.28,0q-4.66,0-9.21.31a114.92,114.92,0,0,0-38.83,10A114.64,114.64,0,0,1,232.74,15a125.74,125.74,0,0,1-37.22,5.55A125.35,125.35,0,0,1,158.31,15a115.19,115.19,0,0,1-12.46-4.66A114.83,114.83,0,0,0,107,.31Q102.42,0,97.76,0C43.77,0,0,45.26,0,70s43.77,70,97.76,70q3,0,6-.12c27.69-1.19,53.87-12.75,74.12-31.68,6.21-5.8,13.47-17.27,17.68-17.27s12.95,12.53,20.26,19.16A114.76,114.76,0,0,0,292.48,140h.8c54,0,97.75-46.72,97.75-70S347.27,0,293.28,0ZM114.57,89.33c-22.73,0-41.95-9.27-48.29-22,6.34-12.77,25.56-22,48.29-22s42,9.27,48.29,22C156.52,80.06,137.29,89.33,114.57,89.33Zm161.89,0c-22.71,0-41.94-9.27-48.28-22,6.34-12.77,25.57-22,48.28-22s42,9.27,48.29,22C318.41,80.06,299.19,89.33,276.46,89.33Z"/></g></g></svg>