<svg xmlns="http://www.w3.org/2000/svg" viewBox="0 0 21.8848 27.41911"><g id="Layer_2" data-name="Layer 2"><g id="Layer_1-2" data-name="Layer 1"><rect x="17.00157" y="-0.77425" width="0.1457" height="28.96761" transform="translate(-3.5471 6.34473) rotate(-19.10819)" fill="#3b3b3c"/><path d="M12.667,13.39507c-.70016-.53456-1.02726.00408-1.46784-.03174C10.827,13.334,10.4779,12.732,10.189,12.876c-.5496.27907.22092,1.2693.55532,1.47189.29819.17738.67328.34256.76318.38488a1.11216,1.11216,0,0,1,.67371,1.00648,1.91842,1.91842,0,0,1-.02766.48736,1.9076,1.9076,0,0,1-2.56381,1.04635,1.95443,1.95443,0,0,1-.90395-1.27334C8.454,14.87429,7.64152,14.04682,7.38115,12.946c-.15826-.66925-.27582-1.37586-.45037-2.04878-.17817-.69566-.36043-1.38523-.50607-2.01782a17.89571,17.89571,0,0,0-.6143-2.00158C4.987,4.72935,4.61514,4.88515,4.61514,4.88515a43.55245,43.55245,0,0,1,1.38973,5.86234,31.13272,31.13272,0,0,0,.72982,3.29933c.10336.27337.284.85759.40276,1.1155.3466.75506,1.262,1.89822,1.32216,2.92994.035.59559.10253,1.08867.11719,1.54025a4.74567,4.74567,0,0,0,.153.90882c.22292.62813,2.02761,2.65737,3.94213,2.65737V21.66091a7.00228,7.00228,0,0,1-3.74-1.179,4.16538,4.16538,0,0,1,.22783-1.10083,1.80131,1.80131,0,0,1,1.54633-1.26035,11.5558,11.5558,0,0,1,1.9658.20176Z" fill="#3b3b3c"/><path d="M4.40318,7.81426C4.33361,8.96517,2.55174,10.54,1.99276,11.54892a7.46,7.46,0,0,0-.694,1.84411,4.91218,4.91218,0,0,0,.39867,3.03046c.58989,1.41411-.07973,1.93322.3816,1.64682.57039-.46542.48411-1.55.44183-2.227a9.65045,9.65045,0,0,1,.013-1.8291,8.66342,8.66342,0,0,1,1.53375-3.46043,3.15807,3.15807,0,0,0,.3356-2.73956" fill="#3b3b3c"/><path d="M4.7624,11.08514A7.25436,7.25436,0,0,1,4.14731,14.343C2.04238,20.47626,6.063,21.058,7.20785,22.50059c0,0,.443-.62405-1.38036-2.6248a5.22427,5.22427,0,0,1-.74369-4.64107c.75711-3.33024-.3214-4.14958-.3214-4.14958" fill="#3b3b3c"/><path d="M.78208,7.06207a2.96206,2.96206,0,0,1-.10415-.9764A2.92168,2.92168,0,0,1,2.41018,3.8461s.58906-.40313.66475-.81a1.98092,1.98092,0,0,1-.77947,2.386A3.927,3.927,0,0,0,.78208,7.06207" fill="#3b3b3c"/><path d="M4.08382,5.66829c.07445.14606.61676.941-1.60532,2.77452C.26051,10.27475.95334,11.58392.95334,11.58392s-2.36772-1.3165.35964-3.59144C4.0395,5.71833,3.48011,5.25779,3.48011,5.25779a.6768.6768,0,0,1,.60371.4105" fill="#3b3b3c"/><path d="M6.96823,6.37087c.384.05045.62813,1.2473,1.51621,1.50809.653.19,1.347.08665,1.5008.47966-.29944.15863-.06265.68591.23837.59963C10.47177,8.25893,10.59708,5.55436,6.96823,6.37087Zm1.19607.53865c.03211-.08586.07848-.01629.17571-.07732.10377-.09844.20992-.25916.37876-.31323a.66711.66711,0,0,1,.39909.02441c.07528.01829.03012.21154-.02682.26157-.11961.08911-.47437-.05736-.47437.20871.01466.4353.58947-.01466.88933-.00162C9.65285,8.07546,7.90268,7.78335,8.1643,6.90952Z" fill="#3b3b3c"/></g></g></svg>