<svg width="76" height="100" viewBox="0 0 76 100" fill="none" xmlns="http://www.w3.org/2000/svg">
<path d="M64.2705 30.79L59.2705 35.79V63.23L64.2705 68.23V30.79Z" fill="white"/>
<path d="M16.2705 63.0098V36.0098H16.4905L11.4905 31.0098H11.2705V68.0098H11.4905L16.4905 63.0098H16.2705Z" fill="white"/>
<path d="M59.2708 78.7899V87.9999L31.4208 63.6299L27.0508 68.0099H28.8308L64.2708 99.0199V83.7899L59.2708 78.7899Z" fill="white"/>
<path d="M31.4208 35.38L59.2708 11.02V20.23L64.2708 15.23V0L28.8308 31.01H27.0508L31.4208 35.38Z" fill="white"/>
<path d="M3.53553 11.7447L0 15.2803L71.9976 87.2779L75.5331 83.7424L3.53553 11.7447Z" fill="white"/>
<path d="M71.9976 11.7451L0 83.7427L3.53553 87.2782L75.5331 15.2806L71.9976 11.7451Z" fill="white"/>
</svg>
